<?xml version="1.0" standalone="no"?><!DOCTYPE svg PUBLIC "-//W3C//DTD SVG 1.1//EN" "http://www.w3.org/Graphics/SVG/1.1/DTD/svg11.dtd"><svg t="1579657206951" class="icon" viewBox="0 0 1024 1024" version="1.1" xmlns="http://www.w3.org/2000/svg" p-id="5634" xmlns:xlink="http://www.w3.org/1999/xlink" width="200" height="200"><defs><style type="text/css"></style></defs><path d="M512 30.72a491.52 491.52 0 1 0 491.52 491.52 491.52 491.52 0 0 0-491.52-491.52z m25.6 930.6112v-57.5488a25.6 25.6 0 1 0-51.2 0v57.5488A440.32 440.32 0 0 1 72.9088 547.84h58.368a25.6 25.6 0 0 0 0-51.2H72.9088A440.32 440.32 0 0 1 486.4 83.1488v58.9824a25.6 25.6 0 1 0 51.2 0V83.1488a440.32 440.32 0 0 1 413.4912 413.4912h-58.368a25.6 25.6 0 0 0 0 51.2h58.368a440.32 440.32 0 0 1-413.4912 413.4912z" p-id="5635"></path><path d="M472.2688 621.1584h-133.12a156.672 156.672 0 0 1 11.0592-13.1072c6.7584-7.168 22.528-20.48 46.6944-40.96a641.6384 641.6384 0 0 0 63.0784-58.368 152.7808 152.7808 0 0 0 27.8528-40.96 102.4 102.4 0 0 0 8.6016-40.96 91.136 91.136 0 0 0-29.2864-68.608A110.592 110.592 0 0 0 389.12 330.3424a115.5072 115.5072 0 0 0-78.4384 25.6 97.4848 97.4848 0 0 0-30.5152 51.8144 24.3712 24.3712 0 0 0 3.6864 19.456 25.8048 25.8048 0 0 0 18.0224 10.4448h1.6384a25.3952 25.3952 0 0 0 26.8288-20.48 52.4288 52.4288 0 0 1 13.5168-28.0576 58.7776 58.7776 0 0 1 43.4176-15.9744 57.9584 57.9584 0 0 1 40.96 14.9504 49.152 49.152 0 0 1 15.5648 36.864 76.8 76.8 0 0 1-17.408 46.08 434.7904 434.7904 0 0 1-72.0896 68.608 430.08 430.08 0 0 0-53.6576 50.3808A157.696 157.696 0 0 0 272.7936 634.88c-4.096 10.8544-5.5296 28.8768 4.7104 33.3824a770.048 770.048 0 0 0 87.6544 2.2528h107.1104a24.576 24.576 0 1 0 0-48.9472zM732.5696 546.4064h-20.48v-187.5968a26.8288 26.8288 0 0 0-48.9472-15.5648l-139.4688 197.8368a33.1776 33.1776 0 0 0-6.144 19.2512 33.5872 33.5872 0 0 0 32.768 33.5872h110.3872v53.8624a25.3952 25.3952 0 1 0 50.7904 0V593.92h20.48a23.7568 23.7568 0 0 0 0-47.5136z m-71.8848-128v128h-88.8832z" p-id="5636"></path></svg>