<?xml version="1.0" standalone="no"?><!DOCTYPE svg PUBLIC "-//W3C//DTD SVG 1.1//EN" "http://www.w3.org/Graphics/SVG/1.1/DTD/svg11.dtd"><svg t="1579657169533" class="icon" viewBox="0 0 1024 1024" version="1.1" xmlns="http://www.w3.org/2000/svg" p-id="2321" xmlns:xlink="http://www.w3.org/1999/xlink" width="200" height="200"><defs><style type="text/css"></style></defs><path d="M788.48 880.64H235.52c-51.2 0-92.16-41.984-92.16-92.16V235.52c0-51.2 41.984-92.16 92.16-92.16h552.96c51.2 0 92.16 41.984 92.16 92.16v552.96c0 51.2-40.96 92.16-92.16 92.16zM235.52 184.32c-28.672 0-51.2 23.552-51.2 51.2v552.96c0 28.672 23.552 51.2 51.2 51.2h552.96c28.672 0 51.2-23.552 51.2-51.2V235.52c0-28.672-23.552-51.2-51.2-51.2H235.52z" fill="#231F20" p-id="2322"></path><path d="M857.088 353.28H166.912c-11.264 0-20.48-9.216-20.48-20.48s9.216-20.48 20.48-20.48h691.2c11.264 0 20.48 9.216 20.48 20.48s-10.24 20.48-21.504 20.48zM378.88 280.576c-5.12 0-10.24-2.048-14.336-6.144-4.096-4.096-6.144-9.216-6.144-14.336 0-5.12 2.048-10.24 6.144-14.336 7.168-8.192 21.504-8.192 28.672 0 4.096 4.096 6.144 9.216 6.144 14.336 0 5.12-2.048 10.24-6.144 14.336-4.096 3.072-9.216 6.144-14.336 6.144zM644.096 280.576c-5.12 0-11.264-2.048-14.336-6.144-4.096-4.096-6.144-9.216-6.144-14.336V256c0-1.024 1.024-3.072 1.024-4.096s1.024-2.048 2.048-3.072c1.024-1.024 2.048-2.048 2.048-3.072 5.12-5.12 12.288-7.168 18.432-5.12 1.024 0 2.048 1.024 4.096 1.024 1.024 1.024 2.048 1.024 3.072 2.048 1.024 1.024 2.048 1.024 3.072 2.048 4.096 4.096 6.144 9.216 6.144 14.336 0 5.12-2.048 10.24-6.144 14.336-1.024 1.024-2.048 2.048-3.072 2.048-1.024 1.024-2.048 1.024-3.072 2.048-1.024 0-2.048 1.024-4.096 1.024s-2.048 1.024-3.072 1.024zM323.584 723.968c-52.224 0-75.776-43.008-76.8-45.056-5.12-10.24-2.048-22.528 8.192-27.648s22.528-2.048 27.648 8.192c0 1.024 14.336 25.6 44.032 23.552 30.72-2.048 30.72-45.056 30.72-47.104V490.496c0-11.264 9.216-20.48 20.48-20.48s20.48 9.216 20.48 20.48v145.408c0 28.672-14.336 83.968-69.632 88.064h-5.12zM548.864 723.968c-11.264 0-20.48-9.216-20.48-20.48v-92.16c0-1.024 0-24.576-13.312-33.792-11.264-8.192-33.792-7.168-62.464 4.096-10.24 4.096-22.528-1.024-26.624-12.288-4.096-10.24 1.024-22.528 12.288-26.624 43.008-16.384 77.824-16.384 101.376 1.024 31.744 22.528 29.696 66.56 29.696 67.584v91.136c0 13.312-9.216 21.504-20.48 21.504z" fill="#231F20" p-id="2323"></path><path d="M478.208 727.04c-36.864 0-61.44-23.552-65.536-61.44-3.072-28.672 9.216-45.056 19.456-54.272 36.864-29.696 108.544-10.24 121.856-6.144 11.264 3.072 17.408 14.336 13.312 25.6-1.024 4.096-4.096 8.192-7.168 10.24 5.12 4.096 8.192 11.264 8.192 18.432-3.072 38.912-50.176 67.584-90.112 67.584z m10.24-90.112c-13.312 0-24.576 2.048-30.72 7.168-2.048 1.024-6.144 5.12-5.12 18.432 2.048 16.384 9.216 24.576 24.576 24.576 24.576 0 49.152-19.456 50.176-30.72 0-5.12 3.072-10.24 6.144-13.312-12.288-4.096-29.696-6.144-45.056-6.144zM619.52 723.968c-11.264 0-20.48-9.216-20.48-20.48V551.936c0-11.264 9.216-20.48 20.48-20.48s20.48 9.216 20.48 20.48v151.552c0 12.288-9.216 20.48-20.48 20.48z" fill="#231F20" p-id="2324"></path><path d="M741.376 723.968c-11.264 0-20.48-9.216-20.48-20.48v-97.28s0-10.24-5.12-18.432c-4.096-6.144-11.264-15.36-31.744-15.36-37.888 0-44.032 30.72-45.056 36.864-2.048 11.264-12.288 19.456-23.552 17.408-11.264-1.024-19.456-11.264-17.408-22.528 3.072-25.6 25.6-72.704 86.016-72.704 23.552 0 43.008 7.168 56.32 21.504 21.504 21.504 21.504 50.176 21.504 54.272v97.28c0 11.264-9.216 19.456-20.48 19.456z" fill="#231F20" p-id="2325"></path></svg>